<svg fill="#000000" xmlns="http://www.w3.org/2000/svg" viewBox="0 0 32 32" version="1.1"
     x="0px" y="0px">
  <g stroke="none" stroke-width="1" fill="none" fill-rule="evenodd">
    <path
      d="M4,28 L16,28 C22.627417,28 28,22.627417 28,16 C28,9.372583 22.627417,4 16,4 C9.372583,4 4,9.372583 4,16 L4,28 Z M16,2 C23.7319865,2 30,8.2680135 30,16 C30,23.7319865 23.7319865,30 16,30 L2,30 L2,16 C2,8.2680135 8.2680135,2 16,2 Z"
      fill="#000000" fill-rule="nonzero"></path>
    <path
      d="M7,13 C6.44771525,13 6,12.5522847 6,12 C6,11.4477153 6.44771525,11 7,11 L15,11 C15.5522847,11 16,11.4477153 16,12 C16,12.5522847 15.5522847,13 15,13 L7,13 Z"
      fill="#000000" fill-rule="nonzero"></path>
    <path
      d="M7,18 C6.44771525,18 6,17.5522847 6,17 C6,16.4477153 6.44771525,16 7,16 L24,16 C24.5522847,16 25,16.4477153 25,17 C25,17.5522847 24.5522847,18 24,18 L7,18 Z"
      fill="#000000" fill-rule="nonzero"></path>
    <path
      d="M7,23 C6.44771525,23 6,22.5522847 6,22 C6,21.4477153 6.44771525,21 7,21 L24,21 C24.5522847,21 25,21.4477153 25,22 C25,22.5522847 24.5522847,23 24,23 L7,23 Z"
      fill="#000000" fill-rule="nonzero"></path>
  </g>
</svg>
