<svg height='300px' width='300px' fill="#000000" xmlns="http://www.w3.org/2000/svg" viewBox="0 0 14 14" x="0px" y="0px">
  <path fill-rule="evenodd"
        d="M272.453601,11.5151515 L269.903192,11.5151515 L269.903192,9.39393939 L272.876972,9.39393939 L273.554365,6 L275.820734,6 L275.14334,9.39393939 L278.296122,9.39393939 L278.973516,6 L281.239884,6 L280.56249,9.39393939 L283,9.39393939 L283,11.5151515 L280.139119,11.5151515 L279.546399,14.4848485 L282.096808,14.4848485 L282.096808,16.6060606 L279.123028,16.6060606 L278.445635,20 L276.179266,20 L276.85666,16.6060606 L273.703878,16.6060606 L273.026484,20 L270.760116,20 L271.43751,16.6060606 L269,16.6060606 L269,14.4848485 L271.860881,14.4848485 L272.453601,11.5151515 Z M277.280031,14.4848485 L277.872751,11.5151515 L274.719969,11.5151515 L274.127249,14.4848485 L277.280031,14.4848485 Z"
        transform="translate(-269 -6)"></path>
</svg>
